<svg width="512" height="118" viewBox="0 0 512 118" fill="none" xmlns="http://www.w3.org/2000/svg">
<g clip-path="url(#clip0_47010_11)">
<path d="M81.281 77.0032C95.254 69.3302 105.848 63.4842 106.761 63.0302C109.681 61.4762 112.698 57.3652 106.761 54.1722C104.844 53.1682 94.523 47.5032 81.281 40.1992L62.925 58.7372L81.28 77.0032H81.281Z" fill="#FFD900"/>
<path d="M62.925 58.7368L4.47498 117.646C5.84598 117.828 7.39498 117.464 9.22198 116.46C13.056 114.362 53.698 92.1658 81.282 77.0068L62.925 58.7368V58.7368Z" fill="#F43249"/>
<path d="M62.925 58.7369L81.28 40.2889C81.28 40.2889 13.333 3.20794 9.22101 1.01994C7.67401 0.0999423 5.93801 -0.172058 4.38501 0.0999423L62.925 58.7359V58.7369Z" fill="#00EE76"/>
<path d="M62.925 58.7371L4.384 0.101074C2.008 0.650074 0 2.74907 0 7.04007V110.704C0 114.634 1.554 117.464 4.474 117.736L62.924 58.7361L62.925 58.7371Z" fill="#00D3FF"/>
<path d="M253.533 47.0438C243.031 47.0438 234.354 55.1708 234.354 66.3138C234.354 77.3658 242.94 85.5838 253.534 85.5838C264.127 85.5838 272.712 77.4568 272.712 66.3138C272.712 55.1708 264.127 47.0438 253.533 47.0438ZM253.533 77.9158C247.778 77.9158 242.758 73.0738 242.758 66.2278C242.758 59.2868 247.782 54.5398 253.533 54.5398C259.284 54.5398 264.308 59.2868 264.308 66.2278C264.308 73.0738 259.284 77.9158 253.533 77.9158ZM211.796 47.0438C201.202 47.0438 192.616 55.1708 192.616 66.3138C192.616 77.3658 201.202 85.5838 211.796 85.5838C222.389 85.5838 230.975 77.4568 230.975 66.3138C230.975 55.1708 222.389 47.0438 211.795 47.0438H211.796ZM211.796 77.9158C206.04 77.9158 201.021 73.0738 201.021 66.2278C201.021 59.2868 206.045 54.5398 211.796 54.5398C217.551 54.5398 222.571 59.2868 222.571 66.2278C222.571 73.0738 217.637 77.9158 211.796 77.9158ZM162.204 52.9808V61.1078H181.564C181.014 65.6738 179.466 69.0528 177.181 71.3378C174.351 74.1678 169.967 77.2748 162.204 77.2748C150.238 77.2748 141.017 67.5948 141.017 55.6298C141.017 43.6648 150.243 33.8018 162.204 33.8018C168.686 33.8018 173.347 36.3598 176.817 39.6488L182.568 33.8928C177.726 29.2368 171.244 25.6758 162.204 25.6758C145.854 25.6758 132.154 39.0988 132.154 55.4478C132.154 71.7978 145.854 85.2208 162.204 85.2208C171.062 85.2208 177.64 82.2998 182.936 76.8168C188.324 71.4288 189.968 63.8468 189.968 57.7288C189.968 55.8118 189.787 54.0758 189.51 52.6138L162.204 52.9808V52.9808ZM365.137 59.2818C363.583 54.9888 358.654 47.0438 348.787 47.0438C338.921 47.0438 330.794 54.8078 330.794 66.3138C330.794 77.0888 338.921 85.5838 349.701 85.5838C358.468 85.5838 363.492 80.1958 365.591 77.0888L359.109 72.7058C356.915 75.9038 353.994 78.0018 349.701 78.0018C345.408 78.0018 342.396 76.0848 340.475 72.1558L365.955 61.4718L365.137 59.2818V59.2818ZM339.198 65.7688C339.017 58.3688 344.954 54.5348 349.151 54.5348C352.531 54.5348 355.271 56.1788 356.274 58.6458L339.198 65.7688V65.7688ZM318.466 84.3068H326.87V27.8648H318.466V84.3068V84.3068ZM304.77 51.3368H304.497C302.58 49.0518 299.019 47.0438 294.449 47.0438C284.859 47.0438 276.183 55.5388 276.183 66.3138C276.183 77.0888 284.95 85.4938 294.449 85.4938C299.014 85.4938 302.576 83.4848 304.497 81.1088H304.77V83.8488C304.77 91.2488 300.84 95.1728 294.54 95.1728C289.425 95.1728 286.227 91.4298 284.95 88.3228L277.646 91.4298C279.744 96.5448 285.318 102.846 294.54 102.846C304.402 102.846 312.715 96.9998 312.715 82.8448V48.2298H304.77V51.3368V51.3368ZM295.18 77.9158C289.425 77.9158 284.587 73.0738 284.587 66.3188C284.587 59.5638 289.429 54.6298 295.18 54.6298C300.845 54.6298 305.41 59.5638 305.41 66.3188C305.406 72.9828 300.84 77.9158 295.18 77.9158ZM404.317 27.8658H384.225V84.3068H392.629V62.9338H404.317C413.634 62.9338 422.765 56.1738 422.765 45.3998C422.765 34.6248 413.634 27.8648 404.317 27.8648V27.8658ZM404.589 55.0848H392.715V35.7188H404.589C410.799 35.7188 414.452 40.9248 414.452 45.3988C414.365 49.7828 410.804 55.0848 404.589 55.0848ZM456.285 46.9528C450.257 46.9528 443.955 49.6018 441.398 55.6298L448.798 58.7368C450.443 55.6298 453.364 54.6258 456.471 54.6258C460.855 54.6258 465.238 57.2738 465.329 61.9298V62.4798C463.775 61.5668 460.582 60.2858 456.562 60.2858C448.526 60.2858 440.394 64.7608 440.394 72.9828C440.394 80.5638 446.972 85.4028 454.277 85.4028C459.941 85.4028 463.044 82.8448 464.961 79.8328H465.234V84.2168H473.36V62.5698C473.27 52.6168 465.874 46.9518 456.285 46.9518V46.9528ZM455.281 77.8248C452.541 77.8248 448.703 76.4528 448.703 73.0778C448.703 68.6938 453.45 67.0498 457.561 67.0498C461.213 67.0498 462.949 67.8718 465.234 68.9668C464.594 74.1728 460.119 77.8248 455.281 77.8248V77.8248ZM502.679 48.2348L493.089 72.6188H492.816L482.864 48.2338H473.824L488.8 82.3898L480.305 101.479H489.072L511.994 48.2338H502.678L502.679 48.2348ZM427.425 84.3068H435.829V27.8648H427.425V84.3068Z" fill="#808285"/>
</g>
<defs>
<clipPath id="clip0_47010_11">
<rect width="512" height="118" fill="white"/>
</clipPath>
</defs>
</svg>
